<?xml version="1.0" encoding="UTF-8" standalone="no"?>
<!-- Created with Inkscape (http://www.inkscape.org/) -->

<svg
   width="117.69621mm"
   height="117.6599mm"
   viewBox="0 0 117.6962 117.65992"
   version="1.1"
   id="svg450"
   sodipodi:docname="markericon.svg"
   inkscape:version="1.2.2 (b0a8486541, 2022-12-01)"
   inkscape:export-filename="resources/markericon.svg"
   inkscape:export-xdpi="96"
   inkscape:export-ydpi="96"
   xmlns:inkscape="http://www.inkscape.org/namespaces/inkscape"
   xmlns:sodipodi="http://sodipodi.sourceforge.net/DTD/sodipodi-0.dtd"
   xmlns="http://www.w3.org/2000/svg"
   xmlns:svg="http://www.w3.org/2000/svg">
  <sodipodi:namedview
     id="namedview452"
     pagecolor="#ffffff"
     bordercolor="#000000"
     borderopacity="0.25"
     inkscape:showpageshadow="2"
     inkscape:pageopacity="0.0"
     inkscape:pagecheckerboard="0"
     inkscape:deskcolor="#d1d1d1"
     inkscape:document-units="mm"
     showgrid="false"
     inkscape:zoom="1.5001964"
     inkscape:cx="162.97866"
     inkscape:cy="200.97368"
     inkscape:window-width="1854"
     inkscape:window-height="1011"
     inkscape:window-x="66"
     inkscape:window-y="1055"
     inkscape:window-maximized="1"
     inkscape:current-layer="layer1" />
  <defs
     id="defs447" />
  <g
     inkscape:label="Layer 1"
     inkscape:groupmode="layer"
     id="layer1"
     transform="translate(-37.800351,-57.170002)">
    <path
       d="M 45.758773,174.58586 H 147.62336 c 0,0 6.49419,0.23244 7.58481,-6.16717 0.0496,-0.24389 0.25125,-1.35224 0.27479,-3.29528 -0.1247,-24.66647 0.042,-84.073136 0.042,-84.073136 0,0 -0.0236,-4.377806 -0.0236,-6.447069 0.12384,-10.223721 -1.07607,-17.366617 -6.72454,-17.275082 -3.07366,-0.194214 -4.90366,0.08171 -7.76804,0.08171 h -17.4625 -53.44583 -20.6375 c -2.665412,0 -6.398683,-1.148516 -8.73125,1.581162 -3.008048,3.520974 -2.910416,8.743135 -2.910416,14.548329 v 14.706303 57.402013 15.6551 c 0,2.89619 -0.189707,5.87683 0.573352,8.53914 1.523735,5.31656 7.364147,4.74397 7.364147,4.74397 m 9.525,-7.11595 H 46.28794 c -1.061244,0 -2.811198,0.60674 -3.704167,-0.55362 -1.180041,-1.53326 -1.058333,-3.77289 -1.058333,-6.08793 V 146.59646 86.822436 71.167339 c 0,-2.301772 0.109273,-5.048055 1.322917,-6.404358 0.786341,-0.878582 1.764241,-0.711594 2.645833,-0.711594 h 5.291667 20.372916 52.387497 17.19792 c 2.7641,0 5.72188,-0.546978 8.46667,0 1.31868,0.262815 2.24022,2.46971 2.38125,4.74397 0.35269,5.690388 0,11.822444 0,17.552683 v 58.3508 15.18069 c 0,1.80842 0.29606,4.63249 -0.35269,6.16718 -0.7493,1.77235 -2.27145,1.4232 -3.35148,1.4232 h -8.46667 M 95.069444,73.626395 v 64.992365 h 3.96875 V 73.626395 h -3.96875 M 77.24419,143.75007 c 0.185473,3.07645 3.314171,4.96313 4.7625,6.00915 0.530489,0.38286 1.534318,1.09018 2.072481,0.39517 0.479689,-0.61908 0.308769,-2.16794 0.308769,-3.08355 h 24.60625 l 0.30877,3.55797 1.54331,-0.55361 3.175,-2.84638 1.8079,-3.00435 -3.92456,-4.66476 -2.91042,-1.50239 v 5.21834 H 84.123356 v -5.21834 c -2.595827,0.1225 -4.725723,3.55891 -6.879166,5.69275 m -0.493578,-14.44146 v -15.1807 h -3.704166 v 15.1807 m 3.711527,-20.4728 V 93.655112 h -3.704167 v 15.180698 m 3.655539,-19.921501 v -15.1807 h -3.704167 v 15.1807 m 46.850932,40.374381 v -15.18071 h -3.70417 v 15.18071 m 3.71153,-20.4728 V 93.635188 h -3.70417 v 15.180702 m 3.65554,-19.921507 v -15.1807 h -3.70417 v 15.1807"
       style="fill:#37383b;stroke:none;stroke-width:0.354284"
       id="path579"
       sodipodi:nodetypes="cccccccsccscsccscccscsccscscccsccscscsccccccccccccccccccccccccccccccccccccccccccccc" />
  </g>
</svg>
