<?xml version="1.0" encoding="UTF-8" standalone="no"?>
<!-- Created with Inkscape (http://www.inkscape.org/) -->

<svg
   width="143.25021mm"
   height="91.15155mm"
   viewBox="0 0 143.25021 91.15155"
   version="1.1"
   id="svg654"
   inkscape:version="1.2.2 (b0a8486541, 2022-12-01)"
   sodipodi:docname="viewericon.svg"
   xmlns:inkscape="http://www.inkscape.org/namespaces/inkscape"
   xmlns:sodipodi="http://sodipodi.sourceforge.net/DTD/sodipodi-0.dtd"
   xmlns="http://www.w3.org/2000/svg"
   xmlns:svg="http://www.w3.org/2000/svg">
  <sodipodi:namedview
     id="namedview656"
     pagecolor="#ffffff"
     bordercolor="#000000"
     borderopacity="0.25"
     inkscape:showpageshadow="2"
     inkscape:pageopacity="0.0"
     inkscape:pagecheckerboard="0"
     inkscape:deskcolor="#d1d1d1"
     inkscape:document-units="mm"
     showgrid="false"
     inkscape:zoom="0.7500982"
     inkscape:cx="244.63463"
     inkscape:cy="304.62678"
     inkscape:window-width="1854"
     inkscape:window-height="1011"
     inkscape:window-x="66"
     inkscape:window-y="1055"
     inkscape:window-maximized="1"
     inkscape:current-layer="layer1" />
  <defs
     id="defs651" />
  <g
     inkscape:label="Layer 1"
     inkscape:groupmode="layer"
     id="layer1"
     transform="translate(-40.582329,-68.464479)">
    <path
       d="m 106.29299,68.62691 c -2.21985,0.4318 -4.42912,0.594783 -6.614584,1.322916 -5.10381,1.701271 -9.50648,4.885267 -14.2875,7.276042 -6.11981,3.059377 -11.94461,6.598179 -17.991667,9.789583 -3.278716,1.730375 -6.502135,3.556794 -9.789583,5.291667 -1.640152,0.865716 -4.099718,1.651793 -5.20356,3.219185 -0.986631,1.400969 -1.166548,3.168654 -1.675606,4.762507 -1.309688,4.10024 -2.376488,8.29124 -3.52769,12.43541 -1.647296,5.92984 -3.589602,11.77766 -5.159375,17.72709 -0.502708,1.905 -1.971146,4.62068 -1.278996,6.61458 0.379942,1.09405 1.406261,1.61369 2.293144,2.20477 1.162844,0.7755 2.356379,2.02036 3.704167,2.46962 1.503098,0.50086 3.024981,-0.70644 4.233333,-1.41129 2.843477,-1.65867 5.785115,-3.33348 8.73125,-4.80642 8.260556,-4.13041 16.168683,-9.00403 24.341663,-13.31753 4.66461,-2.46195 8.96144,-5.52636 14.55209,-4.9829 1.30439,0.12673 2.754314,0.65722 3.968754,1.14644 3.05858,1.23216 5.63562,3.86186 7.09877,6.79106 0.58737,1.17237 0.86518,2.5101 1.41287,3.70417 2.32304,5.06782 4.13015,10.42643 6.21771,15.61041 0.89429,2.22515 1.48167,5.16202 2.82046,7.14375 0.89958,1.32768 2.19604,1.41446 3.61685,1.63169 2.36802,0.36168 4.79161,0.64532 7.14375,1.10225 8.10948,1.57718 16.42004,2.74373 24.60625,3.88065 2.21456,0.30771 4.39473,0.81174 6.61459,1.05833 1.18533,0.13176 2.50295,0.54345 3.70416,0.17648 3.39461,-1.0377 4.20688,-5.73405 5.37898,-8.64315 3.45546,-8.57409 6.99823,-17.09023 10.45104,-25.66458 1.22238,-3.03583 4.05077,-7.73695 0.30957,-10.23064 -0.96044,-0.6403 -2.33628,-0.72867 -3.43959,-0.88186 -1.75154,-0.24342 -3.55864,-0.54504 -5.29166,-0.88186 -6.46378,-1.25703 -13.04661,-2.44395 -19.57917,-3.35147 -2.30452,-0.31989 -4.59581,-0.79058 -6.87917,-1.23481 -1.02129,-0.19844 -1.81768,-0.0452 -2.60085,-0.88186 -2.01083,-2.14418 -3.16442,-5.42264 -4.63021,-7.937503 -2.58498,-4.430449 -5.1435,-8.952707 -7.54062,-13.493751 -3.24909,-6.156325 -6.87917,-11.926887 -13.27415,-15.301647 -1.98438,-1.04775 -4.16719,-1.529821 -6.35,-1.984375 -1.87854,-0.391319 -4.16454,-0.726282 -6.08542,-0.352954 m 30.95625,51.24106 h -0.52916 l -3.61686,-5.55625 -5.82083,-8.73125 -5.37898,-7.672917 c -0.28046,0.760144 -1.143,1.801284 -1.01335,2.645837 0.0979,0.64902 0.74612,1.32053 1.10066,1.85208 0.83079,1.24354 1.7489,2.42332 2.51354,3.70417 3.28348,5.49592 7.63852,10.47274 10.62832,16.13958 0.61383,1.16417 -0.10055,2.33945 -0.52917,3.43959 -0.17992,0.46355 -0.60854,1.08188 -0.2196,1.54331 0.30956,0.36883 0.8546,0.30295 1.27793,0.30877 1.63777,0.0228 2.22779,-0.5252 2.64584,-2.11667 2.30981,0.42545 4.54554,1.06363 6.87916,1.32292 0.72761,0.081 1.94734,0.69083 2.64584,0.39687 0.97895,-0.41089 1.80445,-2.20239 0.52916,-2.69001 -1.19591,-0.45747 -2.71462,-0.4953 -3.96875,-0.61728 -1.61396,-0.1569 -3.11679,-0.79375 -4.7625,-0.79375 l 1.54252,-3.96875 2.9554,-7.40833 10.05417,1.49939 15.34583,2.55747 10.05417,1.76397 -3.08769,8.46667 -6.87917,16.93333 -2.42358,6.08542 -0.88371,1.98437 -2.60085,-0.35269 -6.61459,-1.05833 -16.93333,-2.69002 -9.78958,-1.5875 2.64583,-6.87916 -3.175,-0.79375 -2.11667,5.02708 c -2.81252,-5.62689 -4.74662,-11.75068 -7.36335,-17.4625 -1.016,-2.21456 -1.76477,-4.5212 -3.04271,-6.61458 -1.47637,-2.4138 -3.48721,-4.72149 -5.73352,-6.43811 -1.9685,-1.50363 -4.05871,-2.86967 -6.35,-3.79254 -11.869214,-4.78102 -22.304384,3.07076 -32.279174,8.33438 -5.056184,2.66858 -10.144386,5.45465 -15.081246,8.33437 -2.637632,1.53882 -5.307542,2.96386 -7.9375,4.49792 -1.47029,0.85778 -3.121819,2.12593 -4.7625,2.55773 1.125802,-3.05594 1.855787,-6.36297 2.733939,-9.525 1.451769,-5.22658 3.134254,-10.38384 4.586288,-15.61042 0.639762,-2.3032 1.328473,-4.5884 2.028296,-6.87917 0.23786,-0.778403 0.340783,-1.662643 0.749829,-2.38125 0.667543,-1.172898 2.301346,-1.566598 3.395398,-2.204773 3.013868,-1.758157 6.13992,-3.422915 9.260416,-4.983163 6.8998,-3.449902 13.54667,-7.509404 20.37292,-11.1125 4.40002,-2.321454 8.63335,-5.131858 13.493754,-6.482291 7.25752,-2.015596 15.80091,-0.466196 21.12168,5.20356 2.91836,3.107796 4.75721,6.893454 6.70455,10.583333 1.27264,2.411413 2.69875,4.738423 3.96875,7.14375 1.69597,3.215481 3.56129,6.331214 5.29166,9.525004 0.62442,1.15676 2.07698,2.67652 2.29129,3.96875 0.14817,0.87577 -0.61912,1.88357 -0.92604,2.64583 -1.05039,2.608 -2.15371,5.26468 -2.99773,7.9375 M 84.067986,86.795053 c 1.40494,-0.11086 2.73315,-1.172633 3.96875,-1.807898 2.85486,-1.467644 5.715,-2.986352 8.46667,-4.630208 1.34144,-0.801688 2.33892,-1.745192 2.38125,-3.351477 -1.3679,0.144198 -2.49502,1.203589 -3.70417,1.807898 -2.61143,1.305718 -5.10116,2.840566 -7.67291,4.233333 -1.83357,0.992981 -3.25967,1.478756 -3.43959,3.748352 m 17.462504,2.38125 0.13229,-2.601648 -1.4552,-0.308769 -4.188364,0.881857 v 2.690018 l 1.80711,-0.04418 3.704164,-0.617273 m 2.91042,0.264583 7.67292,2.116667 c 0.22754,-0.782373 0.56885,-2.132806 0.13229,-2.910417 -0.70644,-1.257564 -3.35492,-1.639358 -4.63021,-1.940189 -0.59267,-0.139965 -2.35215,-0.647965 -2.86544,-0.308769 -0.64823,0.426508 -0.30956,2.353998 -0.30956,3.042708 m -33.866671,9.260426 6.614587,-3.395407 2.24895,-1.367102 0.48419,-2.116667 0.97102,-5.027083 -6.61458,3.351477 -1.76398,0.969963 -0.70538,2.02856 -1.234807,5.556249 m 10.847917,-1.852082 3.96875,-1.543315 5.02708,-2.38125 2.82311,-1.631685 0.0873,-3.439584 -7.40833,3.659982 -3.83646,2.160852 -0.66146,3.175 m 33.337504,-6.614584 -0.74877,2.910417 1.54252,1.5875 3.43958,3.704169 c 0.4154,-0.657757 1.18004,-1.801815 0.97102,-2.645836 -0.12435,-0.493977 -0.58473,-0.931598 -0.8837,-1.322916 -1.10332,-1.447007 -2.52148,-3.712369 -4.32065,-4.233334 m -55.562504,14.022919 6.085417,-3.13082 2.02856,-1.146703 0.573088,-1.8079 1.102518,-5.027079 -5.820833,2.866231 -2.513541,1.631686 -0.617273,2.116672 -0.837936,4.497913 m 37.57083,-2.64584 v -2.116663 l 8.466674,1.411023 7.67292,3.88064 -1.05834,2.11667 v 0.26458 l 3.175,1.14644 4.18836,1.10252 -0.0423,-2.77812 -3.35227,-6.879173 c -1.2065,0.359043 -1.82298,2.315103 -1.5875,3.439583 l -4.49791,-2.60165 -6.87917,-2.469623 -3.439584,-0.484972 -1.80711,-0.308769 -0.045,-3.130815 c -2.4765,0.195527 -5.12233,2.268009 -7.14375,3.616061 -0.66146,0.440795 -1.99496,1.190355 -1.45521,2.204768 0.34661,0.65273 1.35203,0.73263 1.98438,0.88186 1.92617,0.45508 3.83646,0.70564 5.82083,0.70564 m -8.46666,-5.027079 c -0.60061,0 -1.78594,-0.232833 -2.29394,0.132292 -0.48683,0.35216 -0.5715,1.188244 -0.70379,1.719784 -0.37307,1.49252 -0.64823,3.015723 -1.05834,4.497923 -0.15875,0.57176 -0.71173,1.49622 -0.30956,2.07248 0.26723,0.37994 0.78846,0.30877 1.19063,0.30877 1.64306,0 1.7145,-1.31763 2.02935,-2.64583 0.18785,-0.80275 0.46038,-1.58142 0.66146,-2.38125 0.3175,-1.268423 0.48419,-2.391835 0.48419,-3.704169 m -20.37292,12.170829 6.61458,-3.13081 2.24896,-1.3671 0.48498,-1.85209 0.97023,-4.497912 -6.08542,2.601642 -2.29314,1.19063 -0.705379,2.02856 -1.234811,5.02708 m -11.377083,5.82084 5.820833,-2.91042 2.248959,-1.32292 1.014147,-3.43958 0.441061,-3.43958 -5.291667,2.60164 -2.557727,1.41129 -0.837671,2.33707 -0.837935,4.7625 m 65.087507,-7.9375 -2.64584,8.20208 2.64584,1.05833 1.5875,-4.7625 0.48418,-2.38125 -2.07168,-2.11666 m 1.32291,41.80416 c -1.09008,-2.18228 -1.82033,-4.60825 -2.73314,-6.87916 -1.67217,-4.1492 -3.44488,-8.28755 -5.11704,-12.43542 -1.27265,-3.16283 -2.2569,-6.27698 -4.40796,-8.99583 -1.37054,-1.73091 -3.24644,-3.53616 -5.20436,-4.54211 -2.04523,-1.05119 -4.26243,-2.10846 -6.614584,-2.33706 -6.32883,-0.61516 -11.03048,1.88277 -16.40417,4.71831 -4.35927,2.30082 -8.59948,4.84003 -12.96458,7.14375 -3.362325,1.77456 -6.697133,3.60813 -10.054166,5.38004 -2.579688,1.36155 -5.167048,2.81543 -7.672917,4.27726 -1.46394,0.85407 -3.341952,2.45321 -5.027083,2.7342 -0.732896,0.12197 -1.503892,-0.66384 -2.116667,-0.97023 0.42254,-1.42107 2.478881,-2.0193 3.704167,-2.73394 4.080139,-2.38019 8.260291,-4.63153 12.435416,-6.83524 2.754842,-1.45388 5.514446,-2.97417 8.202083,-4.54183 3.137427,-1.83012 6.323807,-3.55812 9.524997,-5.24775 6.15157,-3.24617 12.47246,-7.55173 19.84375,-6.83498 2.637904,0.25665 5.334004,1.16787 7.672924,2.33707 1.48167,0.7403 2.97656,1.55654 4.23333,2.69002 6.57754,5.9391 8.63865,15.47758 12.21582,23.28333 0.83608,1.82721 1.52135,3.73592 2.38125,5.55625 0.28575,0.60669 1.18797,1.66767 0.88106,2.38125 -0.35719,0.82682 -2.02406,1.47558 -2.77813,1.85208 m 33.91165,-30.55937 -0.88371,1.45521 -1.89442,4.49791 -0.57414,1.85209 1.45521,0.74956 4.23333,0.57335 1.5875,0.13229 1.10331,-1.71979 1.85208,-4.23333 0.3519,-2.11667 -1.45521,-0.61727 -5.77585,-0.57335 m 10.27377,1.5875 -1.14565,1.98437 -1.54516,3.70417 -0.66146,2.11667 1.76477,0.74956 3.96875,0.61754 1.8071,0.0881 0.88371,-1.4552 1.80711,-4.49792 0.39687,-2.07248 -1.71979,-0.66146 -5.55625,-0.57335 m -15.08125,9.78958 -1.14565,1.98438 -1.67746,3.96875 -0.2196,2.02856 1.71979,0.44078 3.70417,0.70565 1.5875,0.17647 1.63248,-2.82231 1.36525,-3.43958 0.39687,-1.5875 -1.54252,-0.88186 -5.82083,-0.57335 m -18.78542,0.1323 -2.11666,6.08542 2.8231,0.13229 1.49754,-3.30729 0.57415,-2.33707 -2.77813,-0.57335 m 29.36875,1.19063 c -0.6985,0.39237 -0.7911,1.32687 -1.10331,1.98437 -0.65352,1.3851 -1.24354,2.82258 -1.85208,4.23334 -0.22225,0.51593 -0.65088,1.28878 -0.3519,1.85208 0.30427,0.57203 1.14565,0.71384 1.71979,0.79375 1.39965,0.19446 4.61434,1.32794 5.82084,0.44105 1.47637,-1.08426 1.94997,-4.11877 2.69081,-5.73273 0.26723,-0.5834 0.8546,-1.42451 0.66146,-2.11666 -0.22755,-0.80539 -1.12184,-0.73078 -1.76477,-0.83794 -1.22767,-0.20452 -2.48709,-0.33629 -3.70417,-0.57309 -0.62971,-0.1225 -1.50019,-0.39158 -2.11667,-0.0442 m 2.38125,23.15104 -0.83873,1.98438 -2.60085,-0.0881 -6.35,-0.88212 -21.96042,-3.3954 -7.9375,-1.32292 c 2.76225,-3.3909 6.94796,-1.1975 10.58334,-0.79375 5.58535,0.62045 11.08339,2.02512 16.66875,2.64584 4.13808,0.45984 8.33702,1.09722 12.43541,1.85207 z"
       style="fill:#37383b;stroke:none;stroke-width:0.264583"
       id="path644" />
  </g>
</svg>
